<svg width="18" height="16" viewBox="0 0 18 16" fill="none" xmlns="http://www.w3.org/2000/svg">
<path d="M9.8613 0.708252C11.0044 0.708248 11.9006 0.708245 12.6209 0.767095C13.3543 0.827021 13.9603 0.951067 14.5087 1.23051C15.4103 1.68991 16.1433 2.42294 16.6027 3.32455C16.9378 3.98222 17.0536 4.7352 17.097 5.70825H0.90295C0.946429 4.7352 1.06216 3.98222 1.39726 3.32455C1.85665 2.42294 2.58969 1.68991 3.4913 1.23051C4.03974 0.951067 4.64566 0.827021 5.37911 0.767095C6.0994 0.708245 6.9956 0.708248 8.1387 0.708252H9.8613Z" fill="#94A3B8"/>
<path fill-rule="evenodd" clip-rule="evenodd" d="M0.876895 6.95825C0.875 7.27831 0.875 7.62323 0.875 7.9951V8.02788C0.874996 9.17098 0.874993 10.0672 0.933843 10.7875C0.993769 11.5209 1.11782 12.1268 1.39726 12.6753C1.85665 13.5769 2.58969 14.3099 3.4913 14.7693C4.03974 15.0488 4.64566 15.1728 5.37911 15.2327C6.09937 15.2916 6.99551 15.2916 8.13852 15.2916H9.86132C11.0043 15.2916 11.9006 15.2916 12.6209 15.2327C13.3543 15.1728 13.9603 15.0488 14.5087 14.7693C15.4103 14.3099 16.1433 13.5769 16.6027 12.6753C16.8822 12.1268 17.0062 11.5209 17.0662 10.7875C17.125 10.0672 17.125 9.17107 17.125 8.02806V7.99509C17.125 7.62322 17.125 7.27831 17.1231 6.95825H0.876895ZM9.20833 12.1666C9.20833 11.8214 9.48816 11.5416 9.83333 11.5416H13.1667C13.5118 11.5416 13.7917 11.8214 13.7917 12.1666C13.7917 12.5118 13.5118 12.7916 13.1667 12.7916H9.83333C9.48816 12.7916 9.20833 12.5118 9.20833 12.1666Z" fill="#94A3B8"/>
</svg>
