<svg width="20" height="20" viewBox="0 0 20 20" fill="none" xmlns="http://www.w3.org/2000/svg">
<path d="M17.9408 9.05742L16.6742 7.79076C16.4575 7.57409 16.2825 7.14909 16.2825 6.84909V5.04909C16.2825 4.31576 15.6825 3.71576 14.9492 3.71576H13.1575C12.8575 3.71576 12.4325 3.54076 12.2158 3.32409L10.9492 2.05742C10.4325 1.54076 9.5825 1.54076 9.06584 2.05742L7.7825 3.32409C7.57417 3.54076 7.14917 3.71576 6.84084 3.71576H5.04917C4.31584 3.71576 3.71584 4.31576 3.71584 5.04909V6.84075C3.71584 7.14076 3.54084 7.56576 3.32417 7.78242L2.0575 9.04909C1.54084 9.56576 1.54084 10.4158 2.0575 10.9324L3.32417 12.1991C3.54084 12.4158 3.71584 12.8408 3.71584 13.1408V14.9324C3.71584 15.6658 4.31584 16.2658 5.04917 16.2658H6.84084C7.14084 16.2658 7.56584 16.4408 7.7825 16.6574L9.04917 17.9241C9.56584 18.4408 10.4158 18.4408 10.9325 17.9241L12.1992 16.6574C12.4158 16.4408 12.8408 16.2658 13.1408 16.2658H14.9325C15.6658 16.2658 16.2658 15.6658 16.2658 14.9324V13.1408C16.2658 12.8408 16.4408 12.4158 16.6575 12.1991L17.9242 10.9324C18.4658 10.4241 18.4658 9.57409 17.9408 9.05742ZM6.66584 7.49909C6.66584 7.04075 7.04083 6.66576 7.49917 6.66576C7.9575 6.66576 8.3325 7.04075 8.3325 7.49909C8.3325 7.95742 7.96584 8.33242 7.49917 8.33242C7.04083 8.33242 6.66584 7.95742 6.66584 7.49909ZM7.94084 12.9408C7.81584 13.0658 7.6575 13.1241 7.49917 13.1241C7.34084 13.1241 7.1825 13.0658 7.0575 12.9408C6.94127 12.8231 6.87608 12.6644 6.87608 12.4991C6.87608 12.3337 6.94127 12.175 7.0575 12.0574L12.0575 7.05742C12.2992 6.81576 12.6992 6.81576 12.9408 7.05742C13.1825 7.29909 13.1825 7.69909 12.9408 7.94076L7.94084 12.9408ZM12.4992 13.3324C12.0325 13.3324 11.6575 12.9574 11.6575 12.4991C11.6575 12.0408 12.0325 11.6658 12.4908 11.6658C12.9492 11.6658 13.3242 12.0408 13.3242 12.4991C13.3242 12.9574 12.9575 13.3324 12.4992 13.3324Z" fill="#94A3B8"/>
</svg>
