<svg width="18" height="18" viewBox="0 0 18 18" fill="none" xmlns="http://www.w3.org/2000/svg">
<path d="M4.24472 3.13792C2.02238 4.75255 0.911202 5.55987 0.474781 6.75238C0.439772 6.84805 0.408282 6.94496 0.380376 7.04293C0.0325047 8.26422 0.456935 9.57048 1.3058 12.183C2.15466 14.7955 2.57909 16.1018 3.57838 16.8854C3.65854 16.9482 3.74098 17.0081 3.82553 17.0649C4.18107 17.3038 4.57297 17.4622 5.04167 17.5671V14.683C5.04167 12.4969 6.81387 10.7247 9 10.7247C11.1861 10.7247 12.9583 12.4969 12.9583 14.683V17.5671C13.427 17.4622 13.8189 17.3038 14.1745 17.0649C14.259 17.0081 14.3415 16.9482 14.4216 16.8854C15.4209 16.1018 15.8454 14.7955 16.6942 12.183C17.5431 9.57048 17.9675 8.26422 17.6196 7.04293C17.5917 6.94496 17.5602 6.84805 17.5252 6.75238C17.0888 5.55987 15.9776 4.75256 13.7553 3.13793C11.5329 1.5233 10.4218 0.71598 9.15276 0.669427C9.05096 0.665692 8.94905 0.665692 8.84725 0.669427C7.57824 0.71598 6.46707 1.5233 4.24472 3.13792Z" fill="white"/>
<path d="M11.7083 17.7276V14.683C11.7083 13.1872 10.4958 11.9747 9 11.9747C7.50423 11.9747 6.29167 13.1872 6.29167 14.683V17.7276C7.01913 17.7732 7.89931 17.7732 9 17.7732C10.1007 17.7732 10.9809 17.7732 11.7083 17.7276Z" fill="white"/>
</svg>
