<svg width="20" height="20" viewBox="0 0 20 20" fill="none" xmlns="http://www.w3.org/2000/svg">
<path fill-rule="evenodd" clip-rule="evenodd" d="M18.3333 10.0001C18.3333 14.6025 14.6024 18.3334 10 18.3334C5.39763 18.3334 1.66667 14.6025 1.66667 10.0001C1.66667 5.39771 5.39763 1.66675 10 1.66675C14.6024 1.66675 18.3333 5.39771 18.3333 10.0001ZM11.2988 6.38457C10.4888 5.3046 8.79924 5.57878 8.37235 6.85946L8.09293 7.69773C7.98377 8.02519 7.62982 8.20217 7.30236 8.09301C6.97489 7.98386 6.79792 7.62991 6.90707 7.30244L7.1865 6.46418C7.93225 4.22692 10.8838 3.74794 12.2988 5.63457C13.1276 6.73971 13.0698 8.27418 12.1601 9.31381L11.3941 10.1892C10.8983 10.7559 10.625 11.4833 10.625 12.2362V12.5001C10.625 12.8453 10.3452 13.1251 10 13.1251C9.65482 13.1251 9.375 12.8453 9.375 12.5001V12.2362C9.375 11.1805 9.7582 10.1606 10.4534 9.36611L11.2194 8.49068C11.7401 7.89556 11.7732 7.01718 11.2988 6.38457ZM10 15.8334C10.4602 15.8334 10.8333 15.4603 10.8333 15.0001C10.8333 14.5398 10.4602 14.1667 10 14.1667C9.53976 14.1667 9.16667 14.5398 9.16667 15.0001C9.16667 15.4603 9.53976 15.8334 10 15.8334Z" fill="#94A3B8"/>
</svg>
