<svg width="20" height="19" viewBox="0 0 20 19" fill="none" xmlns="http://www.w3.org/2000/svg">
<path d="M0 9.46V14.46C0 16.75 1.85 18.6 4.14 18.6H15.85C18.14 18.6 20 16.74 20 14.45V9.46C20 8.79 19.46 8.25 18.79 8.25H1.21C0.54 8.25 0 8.79 0 9.46ZM6 15.25H4C3.59 15.25 3.25 14.91 3.25 14.5C3.25 14.09 3.59 13.75 4 13.75H6C6.41 13.75 6.75 14.09 6.75 14.5C6.75 14.91 6.41 15.25 6 15.25ZM12.5 15.25H8.5C8.09 15.25 7.75 14.91 7.75 14.5C7.75 14.09 8.09 13.75 8.5 13.75H12.5C12.91 13.75 13.25 14.09 13.25 14.5C13.25 14.91 12.91 15.25 12.5 15.25ZM11.5 2.608V5.538C11.5 6.208 10.96 6.748 10.29 6.748H1.21C0.53 6.748 0 6.188 0 5.518C0.01 4.388 0.46 3.358 1.21 2.608C1.96 1.858 3 1.398 4.14 1.398H10.29C10.96 1.398 11.5 1.938 11.5 2.608ZM17.97 0H15.03C13.76 0 13 0.76 13 2.03V4.97C13 6.24 13.76 7 15.03 7H17.97C19.24 7 20 6.24 20 4.97V2.03C20 0.76 19.24 0 17.97 0ZM18.91 3.93C18.81 4.03 18.66 4.1 18.5 4.11H17.09L17.1 5.5C17.09 5.67 17.03 5.81 16.91 5.93C16.81 6.03 16.66 6.1 16.5 6.1C16.17 6.1 15.9 5.83 15.9 5.5V4.1L14.5 4.11C14.34 4.10738 14.1874 4.04195 14.0751 3.92784C13.9629 3.81372 13.9 3.66006 13.9 3.5C13.9 3.17 14.17 2.9 14.5 2.9L15.9 2.91V1.51C15.9 1.18 16.17 0.9 16.5 0.9C16.83 0.9 17.1 1.18 17.1 1.51L17.09 2.9H18.5C18.83 2.9 19.1 3.17 19.1 3.5C19.0898 3.66136 19.0224 3.81381 18.91 3.93Z" fill="#94A3B8"/>
</svg>
