<svg width="20" height="20" viewBox="0 0 20 20" fill="none" xmlns="http://www.w3.org/2000/svg">
<path d="M9.95 1.84332L7.94167 6.51832H5.93333C5.6 6.51832 5.275 6.54332 4.95833 6.60998L5.79167 4.60998L5.825 4.53498L5.875 4.40165C5.9 4.34332 5.91667 4.29332 5.94167 4.25165C6.90833 2.00998 7.99167 1.30998 9.95 1.84332ZM15.6092 6.74165L15.5925 6.73332C15.0925 6.59165 14.5842 6.51665 14.0675 6.51665H8.85083L10.7258 2.15832L10.7508 2.09998C10.8675 2.14165 10.9925 2.19998 11.1175 2.24165L12.9592 3.01665C13.9842 3.44165 14.7008 3.88332 15.1425 4.41665C15.2175 4.51665 15.2842 4.60832 15.3508 4.71665C15.4258 4.83332 15.4842 4.94998 15.5175 5.07498C15.5508 5.14998 15.5758 5.21665 15.5925 5.29165C15.7175 5.71665 15.7258 6.19998 15.6092 6.74165ZM10.4333 14.715H10.6417C10.8917 14.715 11.1 14.49 11.1 14.215C11.1 13.865 11 13.815 10.7833 13.7317L10.4333 13.6066V14.715Z" fill="#94A3B8"/>
<path d="M15.24 7.93327C14.865 7.82494 14.4733 7.7666 14.065 7.7666H5.93167C5.365 7.7666 4.83167 7.87494 4.33167 8.0916C3.60009 8.40632 2.97667 8.92835 2.53833 9.59326C2.09999 10.2582 1.86592 11.0369 1.865 11.8333V13.4583C1.865 13.6583 1.88167 13.8499 1.90667 14.0499C2.09 16.6999 3.50667 18.1166 6.15667 18.2916C6.34833 18.3166 6.54 18.3333 6.74833 18.3333H13.2483C16.3317 18.3333 17.9567 16.8666 18.115 13.9499C18.1233 13.7916 18.1317 13.6249 18.1317 13.4583V11.8333C18.1305 10.9593 17.8489 10.1088 17.3284 9.40683C16.8079 8.70481 16.0759 8.18831 15.24 7.93327ZM11.065 12.9166C11.4483 13.0499 11.965 13.3333 11.965 14.2166C11.965 14.9749 11.3733 15.5833 10.64 15.5833H10.4317V15.7666C10.4317 16.0083 10.24 16.1999 9.99833 16.1999C9.75667 16.1999 9.565 16.0083 9.565 15.7666V15.5833H9.49C8.69 15.5833 8.03167 14.9083 8.03167 14.0749C8.03167 13.8333 8.22333 13.6416 8.465 13.6416C8.70667 13.6416 8.89834 13.8333 8.89834 14.0749C8.89834 14.4249 9.165 14.7166 9.49 14.7166H9.565V13.3083L8.93167 13.0833C8.54834 12.9499 8.03167 12.6666 8.03167 11.7833C8.03167 11.0249 8.62333 10.4166 9.35667 10.4166H9.565V10.2333C9.565 9.9916 9.75667 9.79994 9.99833 9.79994C10.24 9.79994 10.4317 9.9916 10.4317 10.2333V10.4166H10.5067C11.3067 10.4166 11.965 11.0916 11.965 11.9249C11.965 12.1666 11.7733 12.3583 11.5317 12.3583C11.29 12.3583 11.0983 12.1666 11.0983 11.9249C11.0983 11.5749 10.8317 11.2833 10.5067 11.2833H10.4317V12.6916L11.065 12.9166Z" fill="#94A3B8"/>
<path d="M8.9 11.7834C8.9 12.1334 9 12.1834 9.21667 12.2668L9.56667 12.3918V11.2834H9.35833C9.1 11.2834 8.9 11.5084 8.9 11.7834Z" fill="#94A3B8"/>
</svg>
