<svg width="20" height="20" viewBox="0 0 20 20" fill="none" xmlns="http://www.w3.org/2000/svg">
<path fill-rule="evenodd" clip-rule="evenodd" d="M10.0377 1.875C11.5682 1.87499 12.7678 1.87499 13.7196 1.97811C14.6909 2.08334 15.4779 2.30194 16.1498 2.79013C16.5566 3.08567 16.9143 3.44341 17.2099 3.8502C17.6981 4.52213 17.9167 5.30912 18.0219 6.2804C18.125 7.23216 18.125 8.4318 18.125 9.96221V10.0377C18.125 11.5681 18.125 12.7678 18.0219 13.7196C17.9167 14.6909 17.6981 15.4779 17.2099 16.1498C16.9143 16.5566 16.5566 16.9143 16.1498 17.2099C15.4779 17.6981 14.6909 17.9167 13.7196 18.0219C12.7678 18.125 11.5682 18.125 10.0378 18.125H9.96227C8.43187 18.125 7.23216 18.125 6.2804 18.0219C5.30912 17.9167 4.52213 17.6981 3.8502 17.2099C3.44341 16.9143 3.08567 16.5566 2.79013 16.1498C2.30194 15.4779 2.08334 14.6909 1.97811 13.7196C1.87499 12.7678 1.87499 11.5682 1.875 10.0377V9.96229C1.87499 8.43185 1.87499 7.23218 1.97811 6.2804C2.08334 5.30912 2.30194 4.52213 2.79013 3.8502C3.08568 3.44341 3.44341 3.08568 3.8502 2.79013C4.52213 2.30194 5.30912 2.08334 6.2804 1.97811C7.23218 1.87499 8.43185 1.87499 9.96229 1.875H10.0377ZM14.7278 7.89429C14.8798 7.58439 14.7518 7.20993 14.4419 7.05792C14.132 6.9059 13.7576 7.03389 13.6055 7.34379L12.3886 9.82467C12.0114 10.5936 10.9028 10.5561 10.5785 9.76335C9.84584 7.97248 7.34129 7.88764 6.48915 9.62483L5.27221 12.1057C5.12019 12.4156 5.24818 12.7901 5.55808 12.9421C5.86799 13.0941 6.24244 12.9661 6.39446 12.6562L7.6114 10.1753C7.9886 9.40636 9.09724 9.44392 9.42153 10.2366C10.1542 12.0275 12.6587 12.1124 13.5108 10.3752L14.7278 7.89429Z" fill="#94A3B8"/>
</svg>
